<svg width="48" height="48" viewBox="0 0 48 48" fill="none" xmlns="http://www.w3.org/2000/svg">
<rect x="0.5" y="0.5" width="47" height="47" rx="23.5" stroke="#CBD5E1"/>
<path d="M23.999 18.418C24.1055 18.418 24.211 18.434 24.3125 18.4648L24.4121 18.5C24.5106 18.5409 24.6026 18.5965 24.6846 18.6641L24.7627 18.7354L32.2627 26.2354C32.338 26.3104 32.4021 26.3959 32.4521 26.4893L32.4971 26.585C32.5515 26.716 32.5801 26.8571 32.5801 26.999C32.5801 27.1054 32.5641 27.2111 32.5332 27.3125L32.4971 27.4121C32.4563 27.5104 32.4013 27.6017 32.334 27.6836L32.2627 27.7627C32.1876 27.838 32.1022 27.9021 32.0088 27.9521L31.9121 27.9971C31.7811 28.0514 31.6408 28.0801 31.499 28.0801C31.3572 28.0801 31.2169 28.0514 31.0859 27.9971C30.9875 27.9562 30.8954 27.9015 30.8135 27.834L30.7354 27.7627L24 21.0273L23.9668 21.0605L17.2627 27.7627C17.0601 27.9652 16.7854 28.0791 16.499 28.0791L16.3926 28.0732C16.1805 28.0522 15.9793 27.9691 15.8145 27.834L15.7354 27.7627C15.5328 27.5602 15.419 27.2854 15.4189 26.999L15.4238 26.8926C15.4448 26.6806 15.5281 26.4793 15.6631 26.3145L15.7354 26.2354L23.2354 18.7354C23.3104 18.6601 23.3959 18.596 23.4893 18.5459L23.5859 18.5C23.7169 18.4457 23.8573 18.418 23.999 18.418Z" fill="#475569" stroke="#475569" stroke-width="0.09375"/>
</svg>
